HIERARCHY
ROOT Hips
{
  OFFSET 0 0 0
  CHANNELS 6 Xposition Yposition Zposition Yrotation Xrotation Zrotation
  JOINT Chest
  {
    OFFSET 0 10.6789 0.00628
    CHANNELS 3 Yrotation Xrotation Zrotation
    JOINT Chest2
    {
      OFFSET 0 10.4912 -0.011408
      CHANNELS 3 Yrotation Xrotation Zrotation
      JOINT Chest3
      {
        OFFSET 0 9.47934 0
        CHANNELS 3 Yrotation Xrotation Zrotation
        JOINT Chest4
        {
          OFFSET 0 9.47934 0
          CHANNELS 3 Yrotation Xrotation Zrotation
          JOINT Neck
          {
            OFFSET 0 13.5353 0
            CHANNELS 3 Yrotation Xrotation Zrotation
            JOINT Head
            {
              OFFSET 0 8.81908 -0.027129
              CHANNELS 3 Yrotation Xrotation Zrotation
              End Site
              {
                OFFSET 0 16.9666 -0.01417
              }
            }
          }
          JOINT RightCollar
          {
            OFFSET -3.01255 7.54515 0
            CHANNELS 3 Yrotation Xrotation Zrotation
            JOINT RightShoulder
            {
              OFFSET -13.6831 0 0
              CHANNELS 3 Yrotation Xrotation Zrotation
              JOINT RightElbow
              {
                OFFSET -26.36 0 0
                CHANNELS 3 Yrotation Xrotation Zrotation
                JOINT RightWrist
                {
                  OFFSET -21.7467 0 0.008601
                  CHANNELS 3 Yrotation Xrotation Zrotation
                  End Site
                  {
                    OFFSET -16.3481 0 0
                  }
                }
              }
            }
          }
          JOINT LeftCollar
          {
            OFFSET 3.01255 7.54515 0
            CHANNELS 3 Yrotation Xrotation Zrotation
            JOINT LeftShoulder
            {
              OFFSET 13.6831 0 0
              CHANNELS 3 Yrotation Xrotation Zrotation
              JOINT LeftElbow
              {
                OFFSET 26.36 0 0
                CHANNELS 3 Yrotation Xrotation Zrotation
                JOINT LeftWrist
                {
                  OFFSET 21.7467 0 0.008601
                  CHANNELS 3 Yrotation Xrotation Zrotation
                  End Site
                  {
                    OFFSET 16.3481 0 0
                  }
                }
              }
            }
          }
        }
      }
    }
  }
  JOINT RightHip
  {
    OFFSET -8.62248 -0.030774 -0.00314
    CHANNELS 3 Yrotation Xrotation Zrotation
    JOINT RightKnee
    {
      OFFSET 0 -37.2092 -0.00263
      CHANNELS 3 Yrotation Xrotation Zrotation
      JOINT RightAnkle
      {
        OFFSET 0 -37.3433 -0.058479
        CHANNELS 3 Yrotation Xrotation Zrotation
        JOINT RightToe
        {
          OFFSET 0 -8.90347 15.0881
          CHANNELS 3 Yrotation Xrotation Zrotation
          End Site
          {
            OFFSET 0 -1.47174 6.88439
          }
        }
      }
    }
  }
  JOINT LeftHip
  {
    OFFSET 8.62248 -0.030774 -0.00314
    CHANNELS 3 Yrotation Xrotation Zrotation
    JOINT LeftKnee
    {
      OFFSET 0 -37.2092 -0.00263
      CHANNELS 3 Yrotation Xrotation Zrotation
      JOINT LeftAnkle
      {
        OFFSET 0 -37.3433 -0.058479
        CHANNELS 3 Yrotation Xrotation Zrotation
        JOINT LeftToe
        {
          OFFSET 0 -8.90347 15.0881
          CHANNELS 3 Yrotation Xrotation Zrotation
          End Site
          {
            OFFSET 0 -1.47174 6.88439
          }
        }
      }
    }
  }
}
MOTION
Frames:	16
Frame Time:	0.025
-14.8734 78.1604 -78.1119 -164.193 -8.01497 -2.26705 6.31494 9.12524 2.85659 0.505255 0.778575 0.181901 0.774771 1.19161 0.281362 5.37246 7.95753 2.22264 11.2462 11.7394 -4.2569 23.2359 -12.6101 -12.7865 1.2349 -1.91204 -4.96096 52.9099 -27.156 55.5743 118.249 -28.5775 29.6694 10.0683 -15.0596 17.0693 5.70015 2.61364 11.2014 13.677 -8.66521 -56.831 -85.7029 39.4893 11.3609 -30.4153 23.3737 55.6689 15.8933 -7.51163 8.75714 -15.6576 44.1138 -0.548836 -5.82901 -30.5902 -7.21378 -0.03998 -0.298631 -0.264767 -19.7659 -41.041 23.1693 36.379 53.0675 14.592 2.3583 11.1898 -1.57507 0.179303 3.51036 2.92586 
-14.608 79.4976 -78.3138 -165.37 -6.39581 -2.31134 6.77838 8.6909 2.59596 0.54042 0.733713 0.173199 0.829501 1.12423 0.268383 5.78819 7.57491 2.16148 12.7983 11.657 -5.06113 26.4951 -12.1862 -14.8995 -0.161036 -1.23615 -6.16251 53.871 -27.6511 54.4511 118.91 -28.1478 29.2347 10.3517 -14.9164 16.8995 8.52906 3.11298 14.6609 17.2283 -12.3154 -57.0706 -65.2405 26.8857 15.737 -33.1387 23.1006 53.8276 16.6555 -6.29167 9.04288 -13.8136 38.0915 0.41066 -6.02556 -27.6969 -7.46839 -0.040871 -0.081223 -0.385256 -15.0834 -35.9193 20.3002 37.4504 34.084 10.7235 -0.656743 25.5303 -4.58939 0.532533 -0.727402 5.29756 
-14.4646 80.5561 -78.8669 -167.287 -5.26549 -2.5356 7.77858 8.08602 2.6301 0.615526 0.674545 0.184224 0.944386 1.0331 0.285341 6.55258 6.92093 2.28383 13.6532 12.3122 -5.61872 28.1358 -10.62 -16.0565 -1.6109 -0.213747 -7.41302 55.8245 -27.6149 52.6164 119.737 -28.0716 28.0159 10.5783 -15.2215 16.978 9.60551 2.01773 17.2511 19.3979 -17.1492 -53.7415 -45.0317 11.7045 12.0459 -35.4638 22.6613 51.4066 18.4912 -4.78421 9.42847 -12.1018 32.5141 1.48502 -6.76392 -25.5071 -7.54715 -0.026478 0.227536 -0.463634 -9.85661 -28.1158 18.0288 42.6994 17.8308 4.925 -5.1901 33.7895 -7.24271 0.998605 -3.00277 11.2099 
-14.4632 80.9917 -79.3584 -169.36 -2.76037 -3.28525 8.63295 6.44342 2.68642 0.672874 0.51849 0.18035 1.0364 0.797176 0.280128 7.41025 5.49957 2.28487 14.2719 12.9605 -5.56493 29.0986 -9.29875 -15.9791 -2.72725 -0.168734 -7.93694 56.3028 -27.5495 52.3911 120.165 -27.862 27.5311 11.0978 -15.569 16.7345 9.86594 0.687742 21.0314 14.9484 -17.2929 -47.569 -22.7936 -4.56917 7.38043 -36.5095 19.753 48.1737 20.4277 -5.49498 9.31531 -11.9792 28.6852 1.8946 -6.39753 -24.4853 -7.36711 0.006657 0.652915 -0.528293 -2.28136 -22.6225 14.7649 39.2854 5.74076 -0.892856 -6.81249 35.4858 -8.4776 0.300964 -5.99356 13.6574 
-14.6864 81.0048 -79.8465 -170.796 0.461496 -4.71747 9.22234 4.7168 2.76557 0.733223 0.396 0.190353 1.13019 0.609066 0.295375 8.11341 4.19069 2.35851 14.566 12.7765 -5.45053 29.6536 -9.58592 -15.9213 -4.14911 -0.884538 -8.01173 55.9561 -27.8942 52.4301 120.819 -27.6953 27.7191 11.6399 -15.5512 16.1368 9.86415 -1.20283 25.4461 10.0726 -14.1206 -43.9669 -3.51244 -11.9361 0.6209 -36.6614 19.9729 49.2999 22.3823 -7.70142 9.52769 -12.4605 26.1469 1.91131 -6.47115 -23.9117 -6.93623 0.017473 0.747576 -0.490128 2.33602 -21.3252 11.5043 30.1795 -3.90196 -0.806631 -6.10158 35.8093 -8.24975 -0.275755 -6.4911 10.6425 
-14.905 80.9171 -80.4751 -171.533 1.24973 -6.08302 9.58445 4.52137 3.22872 0.763157 0.381992 0.230239 1.17408 0.586073 0.356119 8.28962 3.93027 2.73643 14.6918 12.4821 -5.58009 30.0136 -10.0429 -16.2917 -5.00353 -1.726 -8.02304 57.2083 -27.4236 51.3797 121.38 -27.2325 26.828 12.2267 -15.5563 15.5149 10.9814 -2.9959 26.9904 10.1689 -13.9432 -42.7705 5.4252 -10.2873 -3.81813 -37.0184 21.4131 52.3688 23.4817 -7.97116 10.9455 -11.7373 24.5409 1.67513 -7.58265 -23.6454 -6.48634 0.01717 0.618003 -0.319416 0.469139 -19.0696 11.5008 35.0743 -9.94171 -1.16008 -8.01324 37.1366 -8.48515 -0.669935 -7.0477 11.5013 
-14.999 80.755 -80.8939 -171.357 2.16248 -7.18593 9.27725 3.88458 3.79805 0.734296 0.348636 0.253298 1.1322 0.535884 0.392193 8.15216 3.63687 3.02065 14.7916 12.3701 -5.67235 30.2637 -10.1885 -16.5304 -5.13861 -1.93133 -8.02844 57.5253 -27.2383 51.0241 121.411 -26.6676 26.4423 12.3971 -15.4274 15.2807 12.63 -2.97898 27.1816 10.2179 -13.8819 -42.1902 6.92538 -12.8651 -4.69718 -36.8088 21.5422 53.0099 23.8282 -9.03574 11.8747 -11.9637 24.45 1.32445 -8.00425 -23.8979 -6.24404 -0.041715 0.366807 -0.171579 0.391602 -19.4514 12.244 35.5514 -9.75954 -2.11904 -7.25748 35.3041 -6.31796 -0.417226 -7.02024 10.8977 
-15.0945 80.4947 -81.0672 -171.177 2.53404 -7.40385 9.3002 3.81126 3.93592 0.719081 0.330505 0.266725 1.11 0.508468 0.413218 8.07308 3.46877 3.18777 14.7253 12.1163 -5.55003 30.1662 -10.7022 -16.3599 -5.22485 -1.75398 -8.21041 56.8692 -27.3518 51.3023 121.405 -26.4834 26.7805 12.4866 -15.2201 15.1654 13.5399 -2.99596 27.1161 9.78119 -14.3517 -42.1151 7.22355 -16.3711 -5.29265 -36.8467 21.614 53.4327 25.3573 -10.4373 11.5678 -13.1699 26.0207 1.36878 -8.63819 -24.6779 -5.73183 -0.050025 0.081284 -0.247329 0.037936 -21.7558 12.9622 32.1826 -7.37333 -1.01889 -4.78564 33.9618 -4.94461 -0.540655 -6.7249 9.53468 
-15.2096 80.1809 -81.2053 -170.999 1.9397 -6.92989 9.53132 4.37428 3.64446 0.70863 0.337077 0.254723 1.09463 0.519052 0.394992 8.01161 3.57614 3.07939 14.4883 11.8645 -5.35542 29.7213 -11.2815 -15.9945 -5.38655 -1.11546 -8.18148 57.2503 -27.2648 51.3377 120.879 -26.7894 26.7821 12.3539 -15.4575 15.4037 13.6951 -3.10554 27.2073 9.85165 -15.611 -42.5317 8.11087 -18.4513 -6.09516 -36.8842 21.3002 53.063 25.9102 -10.7302 11.0576 -13.7532 28.1575 1.373 -8.93559 -25.6112 -5.10509 -0.001655 -0.127936 -0.324461 -1.39644 -21.4917 13.3062 34.0965 -6.21877 -1.2421 -5.04956 32.4118 -3.78982 -0.291218 -3.63972 5.5779 
-15.2118 80.0802 -81.2856 -170.486 1.52601 -6.20657 9.32306 4.57692 3.22191 0.699982 0.358029 0.225913 1.08177 0.551826 0.350774 7.95066 3.84981 2.78493 14.0737 11.8077 -5.21484 28.9081 -11.5387 -15.6042 -5.33015 -0.650847 -7.73353 57.1728 -27.3273 51.555 120.402 -27.1981 26.9966 12.3731 -15.4459 15.4897 13.0052 -2.98461 27.6491 9.04719 -16.4671 -42.9309 9.48461 -20.1056 -6.79172 -36.5486 20.6029 52.8835 25.1999 -10.5982 10.5281 -14.1913 29.6267 1.05556 -8.46221 -25.9597 -4.78986 0.017403 -0.390643 -0.265395 -0.721053 -20.1675 12.1926 32.4136 -7.61282 -1.6262 -4.92078 31.927 -4.66695 0.317732 -1.12503 3.08797 
-15.0236 80.187 -81.5264 -170.202 1.29024 -5.8415 9.27276 4.73759 3.24415 0.694002 0.371345 0.229081 1.07244 0.572319 0.355678 7.87901 3.9937 2.82437 13.2523 11.8964 -5.26458 27.3631 -11.5798 -15.3765 -5.03987 -0.689096 -7.55201 56.5005 -27.2773 51.7181 120.507 -27.2849 27.2495 12.4492 -15.3175 15.3091 12.0484 -2.92243 27.3441 8.63143 -17.1135 -43.4624 8.39543 -21.4818 -6.53977 -36.3121 20.382 52.8736 24.3222 -10.3775 10.4874 -14.7036 30.2193 0.645261 -7.43625 -25.5438 -5.08289 -0.03215 -0.844566 -0.098505 0.948723 -19.6487 11.7734 30.7061 -8.10805 -2.37518 -5.97991 31.4377 -5.931 1.10208 0.185329 2.17925 
-14.4672 80.2226 -81.4618 -169.535 1.39525 -5.97049 8.92243 4.54938 3.62935 0.687098 0.389953 0.251862 1.06117 0.600564 0.390676 7.76405 4.16199 3.06864 11.9962 11.8313 -5.17321 24.9856 -12.0376 -14.7642 -4.60912 -1.17486 -7.63986 55.6407 -27.0547 51.877 120.798 -27.1392 27.5044 12.4619 -15.2075 15.1233 11.0116 -3.29466 26.6375 8.49516 -17.8866 -44.0369 4.68913 -23.2109 -5.34787 -35.7549 19.5861 52.8136 23.5218 -11.0229 10.5825 -15.1083 30.8726 0.996659 -7.02506 -25.2586 -5.96421 -0.093925 -0.893772 0.110233 0.423837 -20.2408 12.7663 30.3364 -7.27322 -2.69459 -6.61815 31.5859 -6.89203 1.36907 0.333949 1.73258 
-13.9655 80.2396 -81.0757 -168.894 0.785679 -5.77549 8.79571 4.96143 3.68755 0.686438 0.433211 0.267818 1.05843 0.666085 0.414781 7.64149 4.55636 3.21531 10.3058 11.4256 -4.73247 21.7185 -13.2745 -13.3948 -4.10776 -1.88739 -7.87637 54.8933 -26.7116 52.0165 120.916 -27.1243 27.8142 12.4193 -15.183 15.0327 9.78537 -3.7591 26.2439 7.88273 -17.9648 -44.4694 -2.20377 -26.7316 -3.54207 -35.4629 18.5157 52.5696 22.6978 -10.8454 10.3253 -16.3851 31.3729 1.33573 -5.67454 -24.9527 -7.02521 -0.141253 -0.759852 0.182974 -1.22009 -20.8103 13.4061 31.1802 -5.72326 -1.92789 -6.71397 32.3551 -7.39931 0.809747 -0.132276 1.28047 
-13.5706 80.2488 -80.576 -168.25 -0.358125 -5.37095 8.89938 5.89954 3.5029 0.691107 0.492541 0.254816 1.06344 0.755951 0.394213 7.54645 5.10978 3.04521 8.0666 10.7207 -3.92497 17.2709 -15.1781 -11.1103 -3.61347 -2.75643 -7.8964 54.2381 -26.3307 52.1442 121.014 -27.0636 28.0039 12.3683 -15.1548 15.0216 8.49609 -4.20342 26.4362 7.1296 -17.2809 -44.7614 -13.4851 -30.6042 -1.13877 -35.6075 17.6895 52.2274 21.0364 -9.67745 9.85501 -16.8792 31.5814 1.90954 -3.96127 -24.7843 -7.60283 -0.140725 -0.447828 -0.121158 -3.37976 -21.2028 14.1973 31.9685 -3.13122 -0.755626 -6.95186 32.8398 -8.54869 0.09091 -0.720081 0.942952 
-13.3316 80.3624 -80.1369 -167.163 -1.2506 -4.73936 8.73436 6.74063 3.12886 0.682049 0.552003 0.215041 1.04825 0.846602 0.332929 7.36434 5.71177 2.6198 5.60288 9.98346 -2.98736 12.2471 -17.0698 -8.37017 -2.97972 -3.63365 -7.80644 53.3395 -26.053 52.3546 121.293 -26.9133 28.1225 11.9597 -14.954 15.3298 7.63666 -4.62716 26.8195 6.68661 -17.0536 -45.0524 -27.8495 -30.414 1.01946 -35.6546 16.3468 51.0635 18.4005 -8.22205 9.23026 -16.9004 31.3574 2.18233 -2.24468 -24.4195 -7.85579 -0.120716 -0.31115 -0.316358 -5.06228 -21.9779 15.3006 29.6565 1.52279 -0.121714 -7.73052 30.613 -9.79898 -0.046901 -0.590691 -0.244805 
-13.324 80.5618 -79.735 -165.494 -1.73071 -3.73234 8.35305 7.11307 2.60703 0.657934 0.583219 0.178574 1.01153 0.89511 0.277098 7.12636 6.09269 2.25051 3.1464 9.69755 -2.20562 7.16066 -17.9497 -5.76881 -2.36946 -4.20319 -7.96514 52.2513 -25.718 52.7078 121.584 -26.9464 28.2738 11.5128 -14.7713 15.6958 6.65624 -4.61438 26.9872 5.69559 -16.7864 -45.5962 -43.3917 -24.9908 3.20463 -35.9244 13.977 48.3022 15.7002 -7.29069 8.22793 -17.3153 31.5143 1.76947 -1.12327 -24.1507 -7.79596 -0.080572 -0.360268 -0.228649 -5.81268 -24.2193 14.9835 24.24 9.30675 0.664537 -7.89498 24.9781 -9.70462 -0.139483 -0.263724 -1.5047 
